<svg width="512" height="512" viewBox="0 0 512 512" xmlns="http://www.w3.org/2000/svg">
  <defs>
    <!-- Royal Blue to Dark Teal Gradient -->
    <radialGradient id="backgroundGradient" cx="50%" cy="30%" r="80%">
      <stop offset="0%" style="stop-color:#4169E1;stop-opacity:1" />
      <stop offset="50%" style="stop-color:#1E90FF;stop-opacity:1" />
      <stop offset="100%" style="stop-color:#008B8B;stop-opacity:1" />
    </radialGradient>
    
    <!-- White Coffee Cup -->
    <linearGradient id="cupGradient" x1="0%" y1="0%" x2="100%" y2="100%">
      <stop offset="0%" style="stop-color:#ffffff;stop-opacity:1" />
      <stop offset="50%" style="stop-color:#f8f9fa;stop-opacity:1" />
      <stop offset="100%" style="stop-color:#e9ecef;stop-opacity:1" />
    </linearGradient>
    
    <!-- White Coffee Liquid -->
    <linearGradient id="coffeeGradient" x1="0%" y1="0%" x2="100%" y2="100%">
      <stop offset="0%" style="stop-color:#ffffff;stop-opacity:0.9" />
      <stop offset="50%" style="stop-color:#f8f9fa;stop-opacity:0.8" />
      <stop offset="100%" style="stop-color:#e9ecef;stop-opacity:0.7" />
    </linearGradient>
    
    <!-- White Steam -->
    <linearGradient id="steamGradient" x1="0%" y1="100%" x2="0%" y2="0%">
      <stop offset="0%" style="stop-color:#ffffff;stop-opacity:0.9" />
      <stop offset="50%" style="stop-color:#ffffff;stop-opacity:0.6" />
      <stop offset="100%" style="stop-color:#ffffff;stop-opacity:0.2" />
    </linearGradient>
  </defs>
  
  <!-- Background Circle -->
  <circle cx="256" cy="256" r="256" fill="url(#backgroundGradient)" />
  
  <!-- Coffee Cup Base -->
  <path d="M160 180 L160 360 Q160 380 180 380 L300 380 Q320 380 320 360 L320 180 Z" 
        fill="url(#cupGradient)" stroke="#ffffff" stroke-width="3"/>
  
  <!-- Coffee Cup Handle -->
  <path d="M320 220 Q360 220 360 260 Q360 300 320 300" 
        fill="none" stroke="#ffffff" stroke-width="16" stroke-linecap="round"/>
  
  <!-- Coffee Liquid -->
  <path d="M170 190 L170 350 Q170 365 185 365 L295 365 Q310 365 310 350 L310 190 Z" 
        fill="url(#coffeeGradient)"/>
  
  <!-- Coffee Surface Highlight -->
  <ellipse cx="240" cy="190" rx="70" ry="8" fill="#ffffff" opacity="0.8"/>
  
  <!-- Steam Lines -->
  <path d="M200 150 Q205 130 200 110 Q195 90 200 70" 
        fill="none" stroke="url(#steamGradient)" stroke-width="5" stroke-linecap="round"/>
  <path d="M240 150 Q245 130 240 110 Q235 90 240 70" 
        fill="none" stroke="url(#steamGradient)" stroke-width="5" stroke-linecap="round"/>
  <path d="M280 150 Q285 130 280 110 Q275 90 280 70" 
        fill="none" stroke="url(#steamGradient)" stroke-width="5" stroke-linecap="round"/>
  
  <!-- Decorative Coffee Beans -->
  <ellipse cx="380" cy="140" rx="12" ry="18" fill="#ffffff" opacity="0.7" transform="rotate(25 380 140)"/>
  <ellipse cx="380" cy="140" rx="2" ry="12" fill="#ffffff" opacity="0.9" transform="rotate(25 380 140)"/>
  
  <ellipse cx="120" cy="380" rx="10" ry="15" fill="#ffffff" opacity="0.7" transform="rotate(-15 120 380)"/>
  <ellipse cx="120" cy="380" rx="2" ry="10" fill="#ffffff" opacity="0.9" transform="rotate(-15 120 380)"/>
</svg>